# xmcd
#
# Track frame offsets: 
#        150
#        20312
#        40380
#        60880
#
# Disc length: 1030 seconds
#
# Revision: 5
# Processed by: cddbd v1.5.2PL0 Copyright (c) Steve Scherf et al.
# Submitted via: ExactAudioCopy v0.99pb5
#
DISCID=25040404
DTITLE=Usher - U Remind Me
DYEAR=2001
DGENRE=R&B
TTITLE0=U Remind Me (Radio Version)
TTITLE1=U Remind Me ( Instrumental Version )
TTITLE2=I Don't Know (feat. P. Diddy)
TTITLE3=TTP
EXTD=
EXTT0=
EXTT1=
EXTT2=
EXTT3=
PLAYORDER=
